<svg width="103" height="21" viewBox="0 0 103 21" fill="none" xmlns="http://www.w3.org/2000/svg">
<path d="M12.64 8.72C12.64 10.32 12.3333 11.66 11.72 12.74C11.1067 13.82 10.2133 14.6333 9.04 15.18C7.88 15.7267 6.48 16 4.84 16H0.8V1.72H5.28C6.77333 1.72 8.06667 1.98667 9.16 2.52C10.2667 3.05333 11.12 3.84 11.72 4.88C12.3333 5.90667 12.64 7.18667 12.64 8.72ZM9.5 8.8C9.5 7.74667 9.34667 6.88 9.04 6.2C8.73333 5.52 8.27333 5.02 7.66 4.7C7.06 4.36667 6.32 4.2 5.44 4.2H3.82V13.5H5.12C6.6 13.5 7.7 13.1067 8.42 12.32C9.14 11.5333 9.5 10.36 9.5 8.8ZM25.2847 10.52C25.2847 11.4267 25.158 12.2333 24.9047 12.94C24.6647 13.6467 24.3114 14.2467 23.8447 14.74C23.3914 15.22 22.838 15.5867 22.1847 15.84C21.5314 16.08 20.7914 16.2 19.9647 16.2C19.2047 16.2 18.498 16.08 17.8447 15.84C17.2047 15.5867 16.6514 15.22 16.1847 14.74C15.718 14.2467 15.3514 13.6467 15.0847 12.94C14.8314 12.2333 14.7047 11.4267 14.7047 10.52C14.7047 9.30667 14.918 8.28667 15.3447 7.46C15.7714 6.62 16.3847 5.98 17.1847 5.54C17.9847 5.1 18.9314 4.88 20.0247 4.88C21.0514 4.88 21.958 5.1 22.7447 5.54C23.5314 5.98 24.1514 6.62 24.6047 7.46C25.058 8.28667 25.2847 9.30667 25.2847 10.52ZM17.7447 10.52C17.7447 11.24 17.818 11.8467 17.9647 12.34C18.1247 12.82 18.3714 13.1867 18.7047 13.44C19.038 13.68 19.4714 13.8 20.0047 13.8C20.538 13.8 20.9647 13.68 21.2847 13.44C21.618 13.1867 21.858 12.82 22.0047 12.34C22.1647 11.8467 22.2447 11.24 22.2447 10.52C22.2447 9.8 22.1647 9.2 22.0047 8.72C21.858 8.24 21.618 7.88 21.2847 7.64C20.9514 7.4 20.518 7.28 19.9847 7.28C19.198 7.28 18.6247 7.55333 18.2647 8.1C17.918 8.63333 17.7447 9.44 17.7447 10.52ZM31.2875 4.88C31.9542 4.88 32.5542 5.01333 33.0875 5.28C33.6208 5.54667 34.0742 5.94667 34.4475 6.48H34.5275L34.7675 5.08H37.2875V16.02C37.2875 17.06 37.0808 17.9333 36.6675 18.64C36.2675 19.3467 35.6608 19.88 34.8475 20.24C34.0342 20.6133 33.0275 20.8 31.8275 20.8C31.0542 20.8 30.3342 20.7533 29.6675 20.66C29.0142 20.5667 28.3742 20.4 27.7475 20.16V17.78C28.2008 17.9667 28.6542 18.12 29.1075 18.24C29.5742 18.3733 30.0475 18.4667 30.5275 18.52C31.0208 18.5867 31.5142 18.62 32.0075 18.62C32.7808 18.62 33.3542 18.4133 33.7275 18C34.1142 17.5867 34.3075 16.9667 34.3075 16.14V15.92C34.3075 15.6933 34.3142 15.46 34.3275 15.22C34.3542 14.98 34.3742 14.7667 34.3875 14.58H34.3075C33.9342 15.1533 33.4875 15.5667 32.9675 15.82C32.4475 16.0733 31.8608 16.2 31.2075 16.2C29.9142 16.2 28.9008 15.7067 28.1675 14.72C27.4475 13.72 27.0875 12.3333 27.0875 10.56C27.0875 9.36 27.2542 8.34 27.5875 7.5C27.9208 6.64667 28.4008 6 29.0275 5.56C29.6675 5.10667 30.4208 4.88 31.2875 4.88ZM32.2275 7.3C31.7608 7.3 31.3675 7.42667 31.0475 7.68C30.7408 7.92 30.5075 8.28667 30.3475 8.78C30.2008 9.26 30.1275 9.86667 30.1275 10.6C30.1275 11.6933 30.3008 12.5133 30.6475 13.06C30.9942 13.5933 31.5342 13.86 32.2675 13.86C32.6542 13.86 32.9875 13.8133 33.2675 13.72C33.5475 13.6133 33.7742 13.4467 33.9475 13.22C34.1342 12.98 34.2742 12.6733 34.3675 12.3C34.4608 11.9267 34.5075 11.4733 34.5075 10.94V10.58C34.5075 9.79333 34.4275 9.16 34.2675 8.68C34.1075 8.2 33.8608 7.85333 33.5275 7.64C33.1942 7.41333 32.7608 7.3 32.2275 7.3ZM43.6238 16H40.6438V1.72H48.8238V4.2H43.6238V7.88H48.4638V10.36H43.6238V16ZM54.3603 5.08V16H51.3803V5.08H54.3603ZM52.8803 0.799999C53.3203 0.799999 53.7003 0.906666 54.0203 1.12C54.3403 1.32 54.5003 1.7 54.5003 2.26C54.5003 2.80667 54.3403 3.18667 54.0203 3.4C53.7003 3.61333 53.3203 3.72 52.8803 3.72C52.427 3.72 52.0403 3.61333 51.7203 3.4C51.4136 3.18667 51.2603 2.80667 51.2603 2.26C51.2603 1.7 51.4136 1.32 51.7203 1.12C52.0403 0.906666 52.427 0.799999 52.8803 0.799999ZM63.6741 4.88C64.8474 4.88 65.7874 5.2 66.4941 5.84C67.2007 6.46667 67.5541 7.48 67.5541 8.88V16H64.5741V9.62C64.5741 8.83333 64.4341 8.24667 64.1541 7.86C63.8741 7.46 63.4274 7.26 62.8141 7.26C61.9074 7.26 61.2874 7.57333 60.9541 8.2C60.6207 8.81333 60.4541 9.7 60.4541 10.86V16H57.4741V5.08H59.7541L60.1541 6.48H60.3141C60.5541 6.10667 60.8474 5.80667 61.1941 5.58C61.5407 5.34 61.9274 5.16667 62.3541 5.06C62.7807 4.94 63.2207 4.88 63.6741 4.88ZM74.0786 16.2C72.8653 16.2 71.8719 15.7267 71.0986 14.78C70.3386 13.82 69.9586 12.4133 69.9586 10.56C69.9586 8.69333 70.3453 7.28 71.1186 6.32C71.8919 5.36 72.9053 4.88 74.1586 4.88C74.6786 4.88 75.1386 4.95333 75.5386 5.1C75.9386 5.23333 76.2786 5.42 76.5586 5.66C76.8519 5.9 77.0986 6.17333 77.2986 6.48H77.3986C77.3586 6.26667 77.3119 5.96 77.2586 5.56C77.2053 5.14667 77.1786 4.72667 77.1786 4.3V0.799999H80.1586V16H77.8786L77.2986 14.58H77.1786C76.9919 14.8733 76.7519 15.1467 76.4586 15.4C76.1786 15.64 75.8453 15.8333 75.4586 15.98C75.0719 16.1267 74.6119 16.2 74.0786 16.2ZM75.1186 13.82C75.9453 13.82 76.5253 13.58 76.8586 13.1C77.1919 12.6067 77.3653 11.8733 77.3786 10.9V10.58C77.3786 9.51333 77.2119 8.7 76.8786 8.14C76.5586 7.58 75.9586 7.3 75.0786 7.3C74.4253 7.3 73.9119 7.58667 73.5386 8.16C73.1653 8.72 72.9786 9.53333 72.9786 10.6C72.9786 11.6667 73.1653 12.4733 73.5386 13.02C73.9119 13.5533 74.4386 13.82 75.1186 13.82ZM87.7748 4.88C88.7882 4.88 89.6548 5.07333 90.3748 5.46C91.1082 5.84667 91.6748 6.40667 92.0748 7.14C92.4748 7.87333 92.6748 8.77333 92.6748 9.84V11.28H85.6348C85.6615 12.12 85.9082 12.78 86.3748 13.26C86.8548 13.74 87.5148 13.98 88.3548 13.98C89.0615 13.98 89.7015 13.9133 90.2748 13.78C90.8482 13.6333 91.4415 13.4133 92.0548 13.12V15.42C91.5215 15.6867 90.9548 15.88 90.3548 16C89.7682 16.1333 89.0548 16.2 88.2148 16.2C87.1215 16.2 86.1548 16 85.3148 15.6C84.4748 15.1867 83.8148 14.5667 83.3348 13.74C82.8548 12.9133 82.6148 11.8733 82.6148 10.62C82.6148 9.34 82.8282 8.28 83.2548 7.44C83.6948 6.58667 84.3015 5.94667 85.0748 5.52C85.8482 5.09333 86.7482 4.88 87.7748 4.88ZM87.7948 7C87.2215 7 86.7415 7.18667 86.3548 7.56C85.9815 7.93333 85.7615 8.51333 85.6948 9.3H89.8748C89.8748 8.86 89.7948 8.46667 89.6348 8.12C89.4882 7.77333 89.2615 7.5 88.9548 7.3C88.6482 7.1 88.2615 7 87.7948 7ZM101.191 4.88C101.338 4.88 101.511 4.88667 101.711 4.9C101.911 4.91333 102.071 4.93333 102.191 4.96L101.971 7.76C101.878 7.73333 101.738 7.71333 101.551 7.7C101.378 7.67333 101.225 7.66 101.091 7.66C100.705 7.66 100.331 7.71333 99.9713 7.82C99.6113 7.91333 99.2846 8.06667 98.9913 8.28C98.7113 8.49333 98.4846 8.78 98.3113 9.14C98.1513 9.48667 98.0713 9.92 98.0713 10.44V16H95.0913V5.08H97.3513L97.7913 6.92H97.9313C98.1446 6.54667 98.4113 6.20667 98.7313 5.9C99.0513 5.59333 99.4179 5.34667 99.8313 5.16C100.258 4.97333 100.711 4.88 101.191 4.88Z" fill="#EFF9F3"/>
</svg>
